<svg xmlns="http://www.w3.org/2000/svg" viewBox="0 0 16 16" width="16px" height="16px"><path fill="#d84e4e" d="M5.088 14.5L14.5 5.299 14.5 14.5z"/><path fill="#c74343" d="M14,6.487V14H6.315L14,6.487 M15,4.111L3.862,15H15V4.111L15,4.111z"/><path fill="#e26666" d="M9.984 9.873L14.5 5.425 14.5 14.429z"/><path fill="#c74343" d="M14,6.619v6.595l-3.308-3.337L14,6.619 M15,4.231L9.276,9.869L14.362,15H15V4.231L15,4.231z"/><path fill="#ed7e7e" d="M3.936,14.5c-0.776,0-1.382-0.213-1.803-0.633C0.586,12.32,1.966,8.326,5.146,5.146 C7.361,2.931,10.077,1.5,12.064,1.5c0.776,0,1.382,0.213,1.803,0.633c1.547,1.547,0.167,5.541-3.013,8.721 C8.639,13.069,5.923,14.5,3.936,14.5z"/><path fill="#c74343" d="M12.065,2L12.065,2c0.638,0,1.126,0.164,1.449,0.487c1.183,1.183,0.236,4.764-3.013,8.013 C8.374,12.626,5.798,14,3.936,14c-0.638,0-1.126-0.164-1.449-0.487C1.304,12.331,2.251,8.749,5.5,5.5 C7.626,3.374,10.203,2,12.065,2 M12.064,1C9.998,1,7.202,2.383,4.793,4.793C1.357,8.228,0.008,12.449,1.78,14.22 C2.309,14.749,3.056,15,3.936,15c2.066,0,4.862-1.383,7.272-3.793c3.435-3.435,4.784-7.656,3.013-9.428 C13.691,1.251,12.944,1,12.064,1L12.064,1z"/><g><path fill="#f7a3a3" d="M2.977 8.544L1.5 10.677 1.5 8.081 2.437 5.27 5.27 2.437 8.081 1.5 10.749 1.5 8.681 2.978 12.958 4.018 9.146 5.017 10.516 10.516 5.017 9.146 4.023 12.938z"/><path fill="#c74343" d="M9.189,2L7.502,3.206l2.121,0.516l1.293,0.314L9.497,4.408l-0.956,0.25L8.78,5.617L9.83,9.83 L5.617,8.78L4.658,8.541l-0.25,0.956l-0.361,1.38L3.723,9.518l-0.519-2.18L2,9.077V8.162L2.874,5.54L5.54,2.874L8.162,2H9.189 M12.308,1H8L5,2L2,5L1,8v4.278L2.75,9.75L4,15l1.375-5.25l5.828,1.453L9.75,5.375L15,4L9.859,2.75L12.308,1L12.308,1z"/></g><g><path fill="#ed7e7e" d="M2.957 9.25L1.572 7.865 2.437 5.27 5.27 2.437 7.865 1.572 9.25 2.957 9.25 5.168 5.168 9.25z"/><path fill="#c74343" d="M7.73,2.144l1.02,1.02v1.797L4.961,8.75H3.164l-1.02-1.02l0.73-2.19L5.54,2.874L7.73,2.144 M8,1L5,2 L2,5L1,8l1.75,1.75h2.625L9.75,5.375V2.75L8,1L8,1z"/></g></svg>